<svg width="32" height="32" viewBox="0 0 32 32" fill="none" xmlns="http://www.w3.org/2000/svg">
  <!-- Background Circle -->
  <circle cx="16" cy="16" r="16" fill="#FF6B35"/>
  
  <!-- Chef Hat -->
  <path d="M10 14C10 11.7909 11.7909 10 14 10H18C20.2091 10 22 11.7909 22 14V15H10V14Z" fill="white"/>
  <path d="M10 15H22V16C22 17.1046 21.1046 18 20 18H12C10.8954 18 10 17.1046 10 16V15Z" fill="white"/>
  
  <!-- Plate -->
  <circle cx="16" cy="20" r="6" fill="white"/>
  <circle cx="16" cy="20" r="4" stroke="#FF6B35" stroke-width="1"/>
  
  <!-- Content/Video Icon -->
  <rect x="14" y="18" width="4" height="4" rx="1" fill="#FF6B35"/>
  <path d="M15 19.5L17 20.5L15 21.5V19.5Z" fill="white"/>
  
  <!-- Media style indicator -->
  <path d="M24 12L26 10M24 10L26 12" stroke="white" stroke-width="1.5" stroke-linecap="round"/>
</svg>
